<svg width="12" height="12" viewBox="0 0 12 12" fill="none" xmlns="http://www.w3.org/2000/svg">
  <path
    d="M2.76471 3.35294H2.17647C1.86445 3.35294 1.56521 3.47689 1.34458 3.69752C1.12395 3.91815 1 4.21739 1 4.52941V9.82353C1 10.1355 1.12395 10.4348 1.34458 10.6554C1.56521 10.8761 1.86445 11 2.17647 11H7.47059C7.78261 11 8.08185 10.8761 8.30248 10.6554C8.52311 10.4348 8.64706 10.1355 8.64706 9.82353V9.23529M8.05882 2.17647L9.82353 3.94118M10.6382 3.10889C10.8699 2.87721 11.0001 2.56299 11.0001 2.23536C11.0001 1.90772 10.8699 1.5935 10.6382 1.36183C10.4066 1.13015 10.0923 1 9.76471 1C9.43707 1 9.12285 1.13015 8.89118 1.36183L3.94118 6.29418V8.05889H5.70588L10.6382 3.10889Z"
    stroke="currentColor" stroke-linecap="round" stroke-linejoin="round" />
</svg>
  