<svg width="17" height="20" viewBox="0 0 17 20" fill="none" xmlns="http://www.w3.org/2000/svg">
<path fill-rule="evenodd" clip-rule="evenodd" d="M7.5 1.66667C7.04 1.66667 6.66667 2.04 6.66667 2.5V3.33333H10V2.5C10 2.04 9.62667 1.66667 9.16667 1.66667H7.5ZM11.6667 3.33333V2.5C11.6667 1.11917 10.5475 0 9.16667 0H7.5C6.11917 0 5 1.11917 5 2.5V3.33333H0.833333C0.373333 3.33333 0 3.70667 0 4.16667C0 4.62667 0.373333 5 0.833333 5H0.920833L2.34 17.7758C2.48083 19.0425 3.55083 20 4.825 20H11.8417C13.1158 20 14.1858 19.0425 14.3258 17.7758L15.7458 5H15.8333C16.2933 5 16.6667 4.62667 16.6667 4.16667C16.6667 3.70667 16.2933 3.33333 15.8333 3.33333H11.6667ZM14.0692 5H2.5975L3.99667 17.5917C4.04417 18.0142 4.40083 18.3333 4.825 18.3333H11.8417C12.2658 18.3333 12.6225 18.0142 12.67 17.5917L14.0692 5ZM6.66667 7.5C7.12667 7.5 7.5 7.87333 7.5 8.33333V15C7.5 15.46 7.12667 15.8333 6.66667 15.8333C6.20667 15.8333 5.83333 15.46 5.83333 15V8.33333C5.83333 7.87333 6.20667 7.5 6.66667 7.5ZM10 7.5C10.46 7.5 10.8333 7.87333 10.8333 8.33333V15C10.8333 15.46 10.46 15.8333 10 15.8333C9.54 15.8333 9.16667 15.46 9.16667 15V8.33333C9.16667 7.87333 9.54 7.5 10 7.5Z" fill="currentColor"/>
</svg>
