<svg width="20" height="20" viewBox="0 0 20 20" fill="none" xmlns="http://www.w3.org/2000/svg">
  <defs>
    <linearGradient id="instagramGradient">
      <stop offset="0%" stop-color="#f09433" />
      <stop offset="25%" stop-color="#e6683c" />
      <stop offset="50%" stop-color="#dc2743" />
      <stop offset="75%" stop-color="#cc2366" />
      <stop offset="100%" stop-color="#bc1888" />
    </linearGradient>
  </defs>
  <path fill-rule="evenodd" clip-rule="evenodd" d="M10.0003 1.45337C7.73699 1.45337 7.45294 1.46327 6.56399 1.50372C5.67679 1.54435 5.07119 1.68481 4.5413 1.8909C3.99317 2.10376 3.52821 2.3885 3.06499 2.85189C2.60142 3.31512 2.31668 3.78008 2.10313 4.32803C1.89651 4.8581 1.75588 5.46386 1.71595 6.35072C1.67619 7.23967 1.66577 7.52389 1.66577 9.78722C1.66577 12.0506 1.67584 12.3337 1.71612 13.2227C1.75692 14.1099 1.89738 14.7155 2.1033 15.2454C2.31633 15.7935 2.60107 16.2585 3.06447 16.7217C3.52752 17.1853 3.99248 17.4707 4.54026 17.6836C5.0705 17.8896 5.67627 18.0301 6.5633 18.0707C7.45224 18.1112 7.73612 18.1211 9.99928 18.1211C12.2628 18.1211 12.546 18.1112 13.4349 18.0707C14.3221 18.0301 14.9284 17.8896 15.4586 17.6836C16.0066 17.4707 16.4709 17.1853 16.9339 16.7217C17.3975 16.2585 17.6822 15.7935 17.8958 15.2456C18.1007 14.7155 18.2413 14.1097 18.283 13.2229C18.3229 12.3339 18.3333 12.0506 18.3333 9.78722C18.3333 7.52389 18.3229 7.23984 18.283 6.3509C18.2413 5.46369 18.1007 4.8581 17.8958 4.3282C17.6822 3.78008 17.3975 3.31512 16.9339 2.85189C16.4703 2.38832 16.0068 2.10358 15.4581 1.8909C14.9268 1.68481 14.3209 1.54435 13.4337 1.50372C12.5448 1.46327 12.2617 1.45337 9.99772 1.45337H10.0003ZM9.72236 2.95512H9.72246H9.72256L10.0003 2.9552C12.2255 2.9552 12.4892 2.96319 13.3679 3.00312C14.1804 3.04028 14.6214 3.17605 14.9152 3.29012C15.3041 3.44117 15.5814 3.62174 15.8729 3.91342C16.1646 4.20511 16.3452 4.4829 16.4966 4.87181C16.6106 5.16524 16.7466 5.60624 16.7836 6.41879C16.8235 7.29731 16.8322 7.56122 16.8322 9.78532C16.8322 12.0094 16.8235 12.2733 16.7836 13.1518C16.7464 13.9644 16.6106 14.4054 16.4966 14.6988C16.3455 15.0877 16.1646 15.3647 15.8729 15.6562C15.5812 15.9479 15.3043 16.1284 14.9152 16.2795C14.6218 16.3941 14.1804 16.5295 13.3679 16.5666C12.4894 16.6066 12.2255 16.6153 10.0003 16.6153C7.77501 16.6153 7.51128 16.6066 6.63275 16.5666C5.8202 16.5291 5.3792 16.3934 5.08526 16.2793C4.69634 16.1282 4.41855 15.9477 4.12686 15.656C3.83518 15.3643 3.65461 15.0872 3.50321 14.6981C3.38914 14.4047 3.2532 13.9637 3.21622 13.1512C3.17628 12.2726 3.1683 12.0087 3.1683 9.78323C3.1683 7.55775 3.17628 7.29523 3.21622 6.4167C3.25337 5.60415 3.38914 5.16315 3.50321 4.86938C3.65426 4.48047 3.83518 4.20268 4.12686 3.91099C4.41855 3.61931 4.69634 3.43874 5.08526 3.28734C5.37903 3.17275 5.8202 3.03732 6.63275 3C7.40155 2.96527 7.69948 2.95485 9.25271 2.95312V2.9552C9.39781 2.95497 9.55391 2.95504 9.72236 2.95512ZM14.4489 4.33897C13.8967 4.33897 13.4488 4.78639 13.4488 5.33869C13.4488 5.8908 13.8967 6.33875 14.4489 6.33875C15.001 6.33875 15.4489 5.8908 15.4489 5.33869C15.4489 4.78657 15.001 4.33862 14.4489 4.33862V4.33897ZM5.72054 9.78723C5.72054 7.42377 7.63671 5.50754 10.0001 5.50745C12.3637 5.50745 14.2794 7.42371 14.2794 9.78723C14.2794 12.1507 12.3638 14.0661 10.0003 14.0661C7.6368 14.0661 5.72054 12.1507 5.72054 9.78723ZM12.7783 9.78722C12.7783 8.25292 11.5344 7.00927 10.0003 7.00927C8.46602 7.00927 7.22237 8.25292 7.22237 9.78722C7.22237 11.3213 8.46602 12.5652 10.0003 12.5652C11.5344 12.5652 12.7783 11.3213 12.7783 9.78722Z" fill="currentColor"/>
</svg>
