<svg xmlns="http://www.w3.org/2000/svg" width="12" height="13" viewBox="0 0 12 13" fill="red">
  <path d="M5.77383 12.125C6.25282 12.125 6.64112 11.7367 6.64112 11.2577V7.31818H10.3762C10.8281 7.31818 11.1944 6.95187 11.1944 6.5C11.1944 6.04813 10.8281 5.68182 10.3762 5.68182H6.64112V1.74229C6.64112 1.2633 6.25282 0.875 5.77383 0.875C5.29484 0.875 4.90654 1.2633 4.90654 1.74229V5.68182H1.17145C0.719584 5.68182 0.353271 6.04813 0.353271 6.5C0.353271 6.95187 0.719584 7.31818 1.17145 7.31818H4.90654V11.2577C4.90654 11.7367 5.29484 12.125 5.77383 12.125Z" fill="black"/>
</svg>