<svg width="20" height="20" viewBox="0 0 20 20" fill="none" xmlns="http://www.w3.org/2000/svg">
<path fill-rule="evenodd" clip-rule="evenodd" d="M10.035 18.0573C14.6104 18.0554 18.3316 14.3333 18.3334 9.75886C18.3343 7.54155 17.4719 5.45662 15.9052 3.88811C14.3384 2.31952 12.2548 1.4553 10.0349 1.45435C5.46084 1.45435 1.73814 5.17685 1.73632 9.75231C1.7357 11.2149 2.11783 12.6425 2.84404 13.901L1.66675 18.2012L6.0659 17.0472C7.27798 17.7083 8.64268 18.0568 10.0315 18.0573H10.035ZM6.26972 15.5449L3.6592 16.2297L4.35599 13.6844L4.19199 13.4235C3.50156 12.3253 3.1369 11.0561 3.13743 9.75279C3.13894 5.94989 6.23312 2.85599 10.0377 2.85599C11.88 2.85662 13.6118 3.57497 14.914 4.87872C16.2162 6.18247 16.933 7.91537 16.9323 9.75838C16.9307 13.5616 13.8366 16.6558 10.035 16.6558H10.0322C8.7945 16.6553 7.58058 16.3228 6.52159 15.6944L6.26972 15.5449ZM13.9317 11.5455C14.0763 11.6154 14.174 11.6626 14.2157 11.7322C14.2675 11.8187 14.2675 12.2338 14.0948 12.7182C13.922 13.2026 13.0936 13.6446 12.6952 13.7041C12.338 13.7576 11.8859 13.7798 11.3892 13.622C11.088 13.5264 10.7018 13.3988 10.2071 13.1852C8.26324 12.3458 6.94958 10.4618 6.7013 10.1057C6.6839 10.0808 6.67174 10.0633 6.66495 10.0543L6.66328 10.052C6.55355 9.90563 5.81828 8.92461 5.81828 7.9093C5.81828 6.95419 6.28745 6.45356 6.50341 6.22313C6.51821 6.20734 6.53181 6.19282 6.544 6.17951C6.73406 5.97192 6.95871 5.92002 7.09693 5.92002C7.23515 5.92002 7.37353 5.9213 7.49434 5.92737C7.50925 5.92811 7.52475 5.92802 7.54078 5.92793C7.66162 5.92722 7.81226 5.92634 7.96087 6.2833C8.01804 6.42068 8.10169 6.62433 8.18992 6.83913C8.36835 7.27351 8.56549 7.75346 8.60017 7.82291C8.65202 7.9267 8.68657 8.04775 8.61746 8.18619C8.60708 8.20695 8.59749 8.22654 8.58832 8.24526C8.53641 8.35124 8.49822 8.4292 8.41011 8.53207C8.37547 8.57252 8.33966 8.61613 8.30385 8.65973C8.23252 8.74661 8.16119 8.83348 8.09908 8.89535C7.99527 8.99875 7.88722 9.11093 8.00817 9.31852C8.12912 9.52611 8.54526 10.2051 9.16168 10.7549C9.8243 11.346 10.4002 11.5958 10.6921 11.7224C10.7491 11.7471 10.7953 11.7671 10.8292 11.7841C11.0364 11.8879 11.1574 11.8705 11.2784 11.7322C11.3993 11.5938 11.7967 11.1267 11.9349 10.9192C12.0731 10.7117 12.2114 10.7462 12.4014 10.8154C12.5915 10.8846 13.611 11.3862 13.8183 11.49C13.8588 11.5103 13.8966 11.5285 13.9317 11.5455Z" fill="currentColor"/>
</svg>
